<?xml version="1.0" encoding="UTF-8" standalone="no"?><!DOCTYPE svg PUBLIC "-//W3C//DTD SVG 1.1//EN" "http://www.w3.org/Graphics/SVG/1.1/DTD/svg11.dtd"><svg width="1520px" height="555px" viewBox="0 0 1520 555" version="1.1" xmlns="http://www.w3.org/2000/svg" xmlns:xlink="http://www.w3.org/1999/xlink" xml:space="preserve" xmlns:serif="http://www.serif.com/" style="fill-rule:evenodd;clip-rule:evenodd;stroke-linejoin:round;stroke-miterlimit:2;"><path d="M369.822,161.234c-2.309,-5.896 -8.367,-9.379 -14.625,-8.434c-9.929,1.496 -26.146,4.963 -46.525,12.934c-20.375,7.975 -34.638,16.437 -42.946,22.075c-5.242,3.554 -7.325,10.229 -5.017,16.125l134.013,342.466c2.304,5.896 8.362,9.384 14.625,8.438c9.929,-1.5 26.146,-4.967 46.521,-12.938c20.379,-7.975 34.637,-16.437 42.945,-22.075c5.242,-3.554 7.325,-10.225 5.021,-16.12l-134.012,-342.471Z" style="fill:#ff4b46;fill-rule:nonzero;"/><path d="M306.315,36.541c-8.225,-5.763 -22.355,-14.438 -42.613,-22.717c-20.25,-8.279 -36.412,-11.987 -46.321,-13.637c-6.241,-1.042 -12.358,2.354 -14.75,8.216l-201.621,493.184c-2.4,5.862 -0.412,12.566 4.771,16.2c8.225,5.758 22.354,14.437 42.613,22.716c20.254,8.28 36.416,11.988 46.321,13.638c6.245,1.037 12.358,-2.358 14.75,-8.217l201.625,-493.187c2.395,-5.863 0.412,-12.563 -4.775,-16.196" style="fill:#ff4b46;fill-rule:nonzero;"/><path d="M709.901,184.612l31.142,82.533l-62.283,0l31.141,-82.533Zm-50.941,138.838l11.233,-29.571l79.417,-0l11.237,29.571c0.892,2.354 3.146,3.908 5.658,3.908l21.455,-0c4.266,-0 7.195,-4.3 5.633,-8.275l-63.238,-160.992c-0.912,-2.316 -3.145,-3.841 -5.637,-3.841l-29.633,-0c-2.492,-0 -4.725,1.525 -5.638,3.841l-63.237,160.992c-1.563,3.975 1.366,8.275 5.637,8.275l21.45,-0c2.517,-0 4.771,-1.554 5.663,-3.908" style="fill:#ff4b46;fill-rule:nonzero;"/><path d="M924.259,321.274l0,-82.159c0,-25.695 -13.491,-40.229 -40.487,-40.229c-19.721,0 -36.075,10.121 -44.379,19.984l-0,-10.788c-0,-3.358 -2.721,-6.079 -6.084,-6.079l-15.083,-0c-3.358,-0 -6.083,2.721 -6.083,6.079l-0,113.192c-0,3.358 2.725,6.083 6.083,6.083l15.083,0c3.363,0 6.084,-2.725 6.084,-6.083l-0,-81.642c6.487,-8.304 18.425,-16.608 32.179,-16.608c15.316,-0 25.437,6.229 25.437,25.954l0,72.296c0,3.358 2.721,6.083 6.084,6.083l15.083,0c3.358,0 6.083,-2.725 6.083,-6.083" style="fill:#ff4b46;fill-rule:nonzero;"/><path d="M1005.74,223.023c23.358,0 36.075,19.463 36.075,41.525c-0,22.321 -12.717,41.788 -36.075,41.788c-23.1,-0 -36.075,-19.467 -36.075,-41.788c-0,-22.062 12.975,-41.525 36.075,-41.525m-0,107.45c39.971,0 64.362,-30.108 64.362,-65.925c0,-36.075 -24.391,-65.658 -64.362,-65.658c-39.971,0 -64.367,29.583 -64.367,65.658c0,35.817 24.396,65.925 64.367,65.925" style="fill:#ff4b46;fill-rule:nonzero;"/><path d="M1085.68,225.62l14.683,-0l0,72.408c0,21.025 10.904,32.446 32.184,32.446c9.537,-0 16.487,-2.134 21.437,-5.113c2.425,-1.458 3.55,-4.362 2.704,-7.066l-2.883,-9.242c-1.033,-3.313 -4.625,-5.079 -7.879,-3.875c-1.909,0.704 -4.088,1.158 -6.371,1.158c-7.783,0 -11.942,-6.491 -11.942,-15.054l0,-65.662l19.359,-0c3.358,-0 6.075,-2.721 6.075,-6.075l-0,-11.467c-0,-3.354 -2.717,-6.075 -6.075,-6.075l-19.359,-0l0,-28.183c0,-3.355 -2.721,-6.08 -6.079,-6.08l-15.096,0c-3.354,0 -6.075,2.725 -6.075,6.08l0,28.183l-14.683,-0c-3.358,-0 -6.075,2.721 -6.075,6.075l-0,11.467c-0,3.354 2.717,6.075 6.075,6.075" style="fill:#ff4b46;fill-rule:nonzero;"/><path d="M1247.42,198.888c-19.717,0 -35.813,10.121 -44.117,19.984l0,-58.542c0,-3.358 -2.721,-6.079 -6.079,-6.079l-15.096,-0c-3.358,-0 -6.079,2.721 -6.079,6.079l0,160.95c0,3.354 2.721,6.079 6.079,6.079l15.096,0c3.358,0 6.079,-2.725 6.079,-6.079l0,-81.646c6.229,-8.304 18.163,-16.612 32.184,-16.612c15.312,-0 25.175,5.712 25.175,25.437l-0,72.821c-0,3.354 2.716,6.079 6.075,6.079l15.095,0c3.355,0 6.075,-2.725 6.075,-6.079l0,-82.683c0,-25.692 -13.491,-39.709 -40.487,-39.709" style="fill:#ff4b46;fill-rule:nonzero;"/><path d="M1334.43,254.168c1.037,-15.054 11.941,-32.958 35.041,-32.958c24.65,-0 34.775,18.166 35.555,32.958l-70.596,-0Zm35.3,-55.279c-37.117,-0 -63.588,29.325 -63.588,65.662c0,39.709 27.771,65.921 65.663,65.921c17.558,0 34.091,-5.142 46.483,-14.696c2.546,-1.966 3.075,-5.612 1.242,-8.254l-5.513,-7.925c-1.987,-2.85 -5.883,-3.346 -8.687,-1.308c-8.859,6.425 -20.525,9.862 -30.925,9.862c-23.621,0 -37.634,-15.833 -39.717,-34.516l90.5,-0c3.342,-0 6.046,-2.709 6.046,-6.046l-0,-0.704c-0,-39.45 -23.875,-67.996 -61.504,-67.996" style="fill:#ff4b46;fill-rule:nonzero;"/><path d="M1512.36,199.428c-13.492,2.154 -25.762,10.491 -34.004,20.741l-0,-12.15c-0,-3.321 -2.696,-6.016 -6.017,-6.016l-15.216,-0c-3.325,-0 -6.017,2.695 -6.017,6.016l-0,113.321c-0,3.325 2.692,6.017 6.017,6.017l15.216,-0c3.321,-0 6.017,-2.692 6.017,-6.017l-0,-79.371c5.446,-9.083 20.762,-16.866 32.442,-16.866c0.766,-0 1.483,0.012 2.175,0.037c3.37,0.133 6.129,-2.637 6.129,-6.008l-0,-13.725c-0,-3.613 -3.179,-6.546 -6.742,-5.979" style="fill:#ff4b46;fill-rule:nonzero;"/><path d="M711.189,447.767l-41.787,0l-0,-55.021l41.787,0c17.129,0 29.588,10.642 29.588,27.25c-0,16.871 -12.459,27.771 -29.588,27.771m60.729,-27.512c0,-32.18 -22.579,-54.242 -56.833,-54.242l-69.996,-0c-3.346,-0 -6.05,2.708 -6.05,6.054l0,161.004c0,3.342 2.704,6.054 6.05,6.054l18.263,0c3.341,0 6.05,-2.712 6.05,-6.054l-0,-58.571l30.366,0l36.396,61.646c1.088,1.846 3.071,2.979 5.213,2.979l20.916,0c4.75,0 7.65,-5.233 5.125,-9.262l-36.766,-58.738c21.025,-3.375 41.266,-20.241 41.266,-50.87" style="fill:#ff4b46;fill-rule:nonzero;"/><path d="M808.768,465.935c1.038,-15.05 11.938,-32.962 35.038,-32.962c24.654,-0 34.775,18.171 35.554,32.962l-70.592,0Zm35.296,-55.279c-37.112,0 -63.587,29.325 -63.587,65.663c-0,39.704 27.771,65.921 65.666,65.921c17.571,-0 34.117,-5.15 46.509,-14.721c2.533,-1.954 3.058,-5.575 1.233,-8.2l-5.558,-7.988c-1.971,-2.833 -5.842,-3.325 -8.634,-1.3c-8.858,6.438 -20.541,9.888 -30.954,9.888c-23.621,-0 -37.629,-15.829 -39.712,-34.517l90.537,0c3.321,0 6.009,-2.692 6.009,-6.012l-0,-0.738c-0,-39.446 -23.875,-67.996 -61.509,-67.996" style="fill:#ff4b46;fill-rule:nonzero;"/><path d="M1003.66,510.573c-6.492,8.566 -18.167,12.979 -29.846,12.979c-15.317,-0 -26.996,-8.825 -26.996,-22.579c-0,-13.496 11.679,-22.584 26.996,-22.584c11.679,0 23.354,4.413 29.846,12.984l-0,19.2Zm-25.18,-99.917c-18.208,-0 -34.912,5.171 -48.733,16.696c-2.317,1.933 -2.921,5.254 -1.362,7.837l5.037,8.354c1.921,3.196 6.192,3.813 9.092,1.467c9.408,-7.608 20.066,-11.258 31.816,-11.258c17.13,-0 29.33,8.829 29.33,23.358l-0,18.688c-9.342,-10.642 -23.621,-16.092 -40.746,-16.092c-20.504,-0 -43.346,11.937 -43.346,41.008c-0,27.509 23.096,41.525 43.346,41.525c16.608,0 31.404,-5.971 40.746,-16.871l-0,7.717c-0,3.333 2.7,6.042 6.037,6.042l15.171,-0c3.337,-0 6.042,-2.709 6.042,-6.042l-0,-77.271c-0,-33.479 -24.396,-45.158 -52.43,-45.158" style="fill:#ff4b46;fill-rule:nonzero;"/><path d="M1146.38,501.234c-5.971,9.338 -19.462,16.867 -32.183,16.867c-21.796,-0 -35.554,-17.388 -35.554,-41.779c-0,-24.142 13.758,-41.529 35.554,-41.529c12.721,-0 26.212,7.525 32.183,16.87l0,49.571Zm21.279,-135.221l-15.304,0c-3.3,0 -5.975,2.671 -5.975,5.971l0,59.175c-9.862,-13.496 -24.392,-20.504 -40.221,-20.504c-32.187,0 -55.541,25.175 -55.541,65.667c-0,41.521 23.616,65.916 55.541,65.916c16.35,0 30.621,-7.783 40.221,-20.245l0,11.162c0,3.296 2.675,5.971 5.975,5.971l15.304,-0c3.296,-0 5.971,-2.675 5.971,-5.971l0,-161.171c0,-3.3 -2.675,-5.971 -5.971,-5.971" style="fill:#ff4b46;fill-rule:nonzero;"/></svg>