<svg width="19" height="20" viewBox="0 1 19 20" fill="none" xmlns="http://www.w3.org/2000/svg">
<g clip-path="url(#clip0_72_2)">
<path d="M13.3269 5.8102C13.2437 5.59773 13.0254 5.47222 12.7999 5.50627C12.4421 5.56018 11.8577 5.68512 11.1233 5.97236C10.3891 6.25975 9.87509 6.56469 9.5757 6.76786C9.3868 6.89593 9.31174 7.13647 9.39491 7.34894L14.2242 19.6901C14.3072 19.9025 14.5255 20.0282 14.7512 19.9941C15.109 19.9401 15.6934 19.8151 16.4277 19.5279C17.162 19.2405 17.6758 18.9356 17.9752 18.7324C18.1641 18.6043 18.2392 18.3639 18.1562 18.1515L13.3269 5.8102V5.8102Z" fill="#FF4B46"/>
<path d="M11.0384 1.31679C10.742 1.10911 10.2328 0.796498 9.50276 0.498155C8.77303 0.199813 8.19061 0.0661914 7.83353 0.00673193C7.60863 -0.0308176 7.3882 0.0915608 7.302 0.302804L0.0363794 18.0752C-0.0501071 18.2864 0.0215325 18.528 0.208307 18.659C0.504704 18.8665 1.01386 19.1792 1.74391 19.4776C2.47378 19.776 3.0562 19.9096 3.41314 19.969C3.63818 20.0064 3.85847 19.8841 3.94467 19.6729L11.2104 1.90043C11.2967 1.68915 11.2253 1.4477 11.0384 1.31679" fill="#FF4B46"/>
</g>
<defs>
<clipPath id="clip0_72_2">
<rect width="18.1982" height="20" fill="white"/>
</clipPath>
</defs>
</svg>
