<?xml version="1.0" encoding="UTF-8" standalone="no"?><!DOCTYPE svg PUBLIC "-//W3C//DTD SVG 1.1//EN" "http://www.w3.org/Graphics/SVG/1.1/DTD/svg11.dtd"><svg width="505px" height="555px" viewBox="0 0 505 555" version="1.1" xmlns="http://www.w3.org/2000/svg" xmlns:xlink="http://www.w3.org/1999/xlink" xml:space="preserve" xmlns:serif="http://www.serif.com/" style="fill-rule:evenodd;clip-rule:evenodd;stroke-linejoin:round;stroke-miterlimit:2;"><path d="M369.822,161.234c-2.309,-5.896 -8.367,-9.379 -14.625,-8.434c-9.929,1.496 -26.146,4.963 -46.525,12.934c-20.375,7.975 -34.638,16.437 -42.946,22.075c-5.242,3.554 -7.325,10.229 -5.017,16.125l134.013,342.466c2.304,5.896 8.362,9.384 14.625,8.438c9.929,-1.5 26.146,-4.967 46.521,-12.938c20.379,-7.975 34.637,-16.437 42.945,-22.075c5.242,-3.554 7.325,-10.225 5.021,-16.12l-134.012,-342.471Z" style="fill:#ff4b46;fill-rule:nonzero;"/><path d="M306.315,36.541c-8.225,-5.763 -22.355,-14.438 -42.613,-22.717c-20.25,-8.279 -36.412,-11.987 -46.321,-13.637c-6.241,-1.042 -12.358,2.354 -14.75,8.216l-201.621,493.184c-2.4,5.862 -0.412,12.566 4.771,16.2c8.225,5.758 22.354,14.437 42.613,22.716c20.254,8.28 36.416,11.988 46.321,13.638c6.245,1.037 12.358,-2.358 14.75,-8.217l201.625,-493.187c2.395,-5.863 0.412,-12.563 -4.775,-16.196" style="fill:#ff4b46;fill-rule:nonzero;"/></svg>